{
    "asset" : {
        "generator" : "Khronos glTF Blender I/O v3.2.40",
        "version" : "2.0"
    },
    "scene" : 0,
    "scenes" : [
        {
            "name" : "Scene",
            "nodes" : [
                14,
                15
            ]
        }
    ],
    "nodes" : [
        {
            "name" : "Muzzle",
            "rotation" : [
                -0.7071068286895752,
                -0.7071068286895752,
                5.6897327738170134e-08,
                3.090862321641907e-08
            ],
            "translation" : [
                5.644660561188175e-08,
                0.8821399211883545,
                -0.08914010226726532
            ]
        },
        {
            "name" : "Ejection",
            "rotation" : [
                0.16773127019405365,
                0.9512513279914856,
                0.044943440705537796,
                0.2548866868019104
            ],
            "scale" : [
                1,
                0.9999998807907104,
                1
            ],
            "translation" : [
                -0.025909995660185814,
                0.24994999170303345,
                -0.108830027282238
            ]
        },
        {
            "name" : "Bullet",
            "rotation" : [
                0.7071068286895752,
                0.7071067094802856,
                -9.72880513927521e-08,
                5.338507236274381e-08
            ],
            "translation" : [
                -0.001959992339834571,
                0.21969996392726898,
                -0.0826200321316719
            ]
        },
        {
            "name" : "Reflex",
            "rotation" : [
                -0.7071068286895752,
                -0.7071067094802856,
                5.6897327738170134e-08,
                3.0908616110991716e-08
            ],
            "translation" : [
                -9.999756730394438e-05,
                0.23021996021270752,
                -0.1387600302696228
            ]
        },
        {
            "name" : "Magazine_Main",
            "rotation" : [
                -0.7071068286895752,
                -0.7071067094802856,
                5.6897327738170134e-08,
                3.0908616110991716e-08
            ],
            "translation" : [
                2.802695320269777e-08,
                0.2828099727630615,
                0.0646299496293068
            ]
        },
        {
            "name" : "Charging_Handle",
            "rotation" : [
                1.37630148434615e-16,
                7.574776361707336e-09,
                7.761023823604773e-09,
                1
            ],
            "translation" : [
                0.030760008841753006,
                0.2993299961090088,
                -0.11756003648042679
            ]
        },
        {
            "name" : "Ejection_Button",
            "rotation" : [
                -1.9908831798854526e-16,
                -1.8624740638628623e-10,
                1.421226587209213e-14,
                1
            ],
            "translation" : [
                1.1639510688610244e-08,
                0.1706399768590927,
                -0.010480022057890892
            ]
        },
        {
            "name" : "Trigger",
            "rotation" : [
                -6.301035742977378e-17,
                7.574776361707336e-09,
                -7.162804522415061e-15,
                1
            ],
            "translation" : [
                1.9624932789952254e-09,
                0.08861997723579407,
                -0.04376000538468361
            ]
        },
        {
            "name" : "Gun_Buddy",
            "rotation" : [
                -0.7071068286895752,
                -0.7071067094802856,
                5.6897320632742776e-08,
                3.0908619663705394e-08
            ],
            "translation" : [
                0.018750011920928955,
                0.24932998418807983,
                -0.07133003324270248
            ]
        },
        {
            "name" : "Magazine_Extra",
            "rotation" : [
                -0.7071068286895752,
                -0.7071068286895752,
                5.6897327738170134e-08,
                3.090862321641907e-08
            ],
            "translation" : [
                -2.5653982049789192e-08,
                -0.6322399377822876,
                0.2028200626373291
            ]
        },
        {
            "name" : "Left_Hand_Target",
            "rotation" : [
                -1.552204231813903e-08,
                7.574777249885756e-09,
                2.9653790002952957e-14,
                1
            ],
            "translation" : [
                2.9156957737086486e-08,
                0.46612995862960815,
                -0.053390055894851685
            ]
        },
        {
            "children" : [
                0,
                1,
                2,
                3,
                4,
                5,
                6,
                7,
                8,
                9,
                10
            ],
            "name" : "Root",
            "rotation" : [
                8.42937097900176e-08,
                -8.42937097900176e-08,
                -1.3469425600646633e-14,
                1
            ],
            "translation" : [
                1.0727526031443414e-16,
                4.019634964857872e-32,
                2.0382131647777808e-32
            ]
        },
        {
            "children" : [
                11
            ],
            "name" : "Skeleton",
            "rotation" : [
                0.5,
                0.5,
                -0.4999999403953552,
                0.5000000596046448
            ]
        },
        {
            "mesh" : 0,
            "name" : "GN_AK_S0_Skelmesh.mo",
            "skin" : 0
        },
        {
            "children" : [
                13,
                12
            ],
            "name" : "AK S0"
        },
        {
            "mesh" : 1,
            "name" : "GN_AK_Magazine_S0_Staticmesh.mo",
            "translation" : [
                0.2828099727630615,
                -0.06462995707988739,
                0
            ]
        }
    ],
    "materials" : [
        {
            "doubleSided" : true,
            "name" : "AK_S0_MI",
            "pbrMetallicRoughness" : {}
        }
    ],
    "meshes" : [
        {
            "name" : "GN_AK_S0_Skelmesh.md",
            "primitives" : [
                {
                    "attributes" : {
                        "POSITION" : 0,
                        "NORMAL" : 1,
                        "TEXCOORD_0" : 2,
                        "TEXCOORD_1" : 3,
                        "JOINTS_0" : 4,
                        "WEIGHTS_0" : 5
                    },
                    "indices" : 6,
                    "material" : 0
                }
            ]
        },
        {
            "name" : "GN_AK_Magazine_S0_Staticmesh.md",
            "primitives" : [
                {
                    "attributes" : {
                        "POSITION" : 8,
                        "NORMAL" : 9,
                        "TEXCOORD_0" : 10,
                        "TEXCOORD_1" : 11,
                        "TEXCOORD_2" : 12
                    },
                    "indices" : 13,
                    "material" : 0
                }
            ]
        }
    ],
    "skins" : [
        {
            "inverseBindMatrices" : 7,
            "joints" : [
                12,
                11,
                0,
                1,
                2,
                3,
                4,
                5,
                6,
                7,
                8,
                9,
                10
            ],
            "name" : "AK S0"
        }
    ],
    "accessors" : [
        {
            "bufferView" : 0,
            "componentType" : 5126,
            "count" : 6276,
            "max" : [
                0.881991982460022,
                0.16464363038539886,
                0.03260808065533638
            ],
            "min" : [
                -0.3993910253047943,
                -0.13332568109035492,
                -0.051131486892700195
            ],
            "type" : "VEC3"
        },
        {
            "bufferView" : 1,
            "componentType" : 5126,
            "count" : 6276,
            "type" : "VEC3"
        },
        {
            "bufferView" : 2,
            "componentType" : 5126,
            "count" : 6276,
            "type" : "VEC2"
        },
        {
            "bufferView" : 3,
            "componentType" : 5126,
            "count" : 6276,
            "type" : "VEC2"
        },
        {
            "bufferView" : 4,
            "componentType" : 5121,
            "count" : 6276,
            "type" : "VEC4"
        },
        {
            "bufferView" : 5,
            "componentType" : 5126,
            "count" : 6276,
            "type" : "VEC4"
        },
        {
            "bufferView" : 6,
            "componentType" : 5123,
            "count" : 23457,
            "type" : "SCALAR"
        },
        {
            "bufferView" : 7,
            "componentType" : 5126,
            "count" : 13,
            "type" : "MAT4"
        },
        {
            "bufferView" : 8,
            "componentType" : 5126,
            "count" : 831,
            "max" : [
                0.11735718697309494,
                0.15483281016349792,
                0.019582275301218033
            ],
            "min" : [
                -0.11735520511865616,
                -0.1548384428024292,
                -0.019582275301218033
            ],
            "type" : "VEC3"
        },
        {
            "bufferView" : 9,
            "componentType" : 5126,
            "count" : 831,
            "type" : "VEC3"
        },
        {
            "bufferView" : 10,
            "componentType" : 5126,
            "count" : 831,
            "type" : "VEC2"
        },
        {
            "bufferView" : 11,
            "componentType" : 5126,
            "count" : 831,
            "type" : "VEC2"
        },
        {
            "bufferView" : 12,
            "componentType" : 5126,
            "count" : 831,
            "type" : "VEC2"
        },
        {
            "bufferView" : 13,
            "componentType" : 5123,
            "count" : 3228,
            "type" : "SCALAR"
        }
    ],
    "bufferViews" : [
        {
            "buffer" : 0,
            "byteLength" : 75312,
            "byteOffset" : 0
        },
        {
            "buffer" : 0,
            "byteLength" : 75312,
            "byteOffset" : 75312
        },
        {
            "buffer" : 0,
            "byteLength" : 50208,
            "byteOffset" : 150624
        },
        {
            "buffer" : 0,
            "byteLength" : 50208,
            "byteOffset" : 200832
        },
        {
            "buffer" : 0,
            "byteLength" : 25104,
            "byteOffset" : 251040
        },
        {
            "buffer" : 0,
            "byteLength" : 100416,
            "byteOffset" : 276144
        },
        {
            "buffer" : 0,
            "byteLength" : 46914,
            "byteOffset" : 376560
        },
        {
            "buffer" : 0,
            "byteLength" : 832,
            "byteOffset" : 423476
        },
        {
            "buffer" : 0,
            "byteLength" : 9972,
            "byteOffset" : 424308
        },
        {
            "buffer" : 0,
            "byteLength" : 9972,
            "byteOffset" : 434280
        },
        {
            "buffer" : 0,
            "byteLength" : 6648,
            "byteOffset" : 444252
        },
        {
            "buffer" : 0,
            "byteLength" : 6648,
            "byteOffset" : 450900
        },
        {
            "buffer" : 0,
            "byteLength" : 6648,
            "byteOffset" : 457548
        },
        {
            "buffer" : 0,
            "byteLength" : 6456,
            "byteOffset" : 464196
        }
    ],
    "buffers" : [
        {
            "byteLength" : 470652,
            "uri" : "data:application/octet-stream;base64,"
        }
    ]
}
